<svg xmlns="http://www.w3.org/2000/svg" viewBox="0 0 62.39 58.46"><defs><style>.cls-1{fill:#f93a75;}.cls-2{fill:#42132d;}.cls-3{fill:#f83a75;}.cls-4{fill:#fefefe;}.cls-5{fill:#fefdfd;}.cls-6{fill:#f93a74;}.cls-7{fill:#fdfdfd;}</style></defs><g id="Layer_2" data-name="Layer 2"><g id="Layer_1-2" data-name="Layer 1"><path class="cls-1" d="M8.59,37.75a24.25,24.25,0,0,1-8.17-8.1A2.34,2.34,0,0,1,0,28,54.52,54.52,0,0,1,4.81,11.77a23.77,23.77,0,0,1,8.36-9.66,12.45,12.45,0,0,1,12-1,11.17,11.17,0,0,0,8.82,0,12.54,12.54,0,0,1,12.21,1.1c4.59,3,7.43,7.35,9.49,12.31A60.3,60.3,0,0,1,59.21,28a3.22,3.22,0,0,1-1.11,2.64c-.56-.19-.67-.75-.92-1.18a9.09,9.09,0,0,0-1.88-2.87c-.36-.29-.36-.77-.45-1.2a16.86,16.86,0,0,0-1.66-4.83,4.8,4.8,0,0,0-3.61-2.82.94.94,0,0,0-.61.14A4.82,4.82,0,0,0,47.49,19a.81.81,0,0,1-.89.4,2.39,2.39,0,0,1-.74-.39,23.91,23.91,0,0,0-12.19-4.51c-8.24-.72-16,.39-22.45,6.23a24,24,0,0,0-3.76,4.48c-.22.32-.64.7-.44,1.05s.8.18,1.21.14c2.09-.18,4-1,6.06-1.38a35.51,35.51,0,0,1,6.89-.73c1.59,0,1.94.45,1.37,1.88a35.47,35.47,0,0,0-2.31,12.52c0,.16,0,0,0,.12-.07.48.09,1.21-.62,1.21s-.7-.66-.73-1.18a21.88,21.88,0,0,0-.75-5,7.19,7.19,0,0,0-.86-2,2.84,2.84,0,0,0-4.57-.69A11.83,11.83,0,0,0,9.3,36.56C9.14,37,9.1,37.52,8.59,37.75Z"/><path class="cls-2" d="M8.59,37.75a17,17,0,0,1,2.12-4.91A9.26,9.26,0,0,1,12.38,31c2-1.68,4.09-1.3,5.35,1a14.82,14.82,0,0,1,1.47,6.58c0,.81,0,.81.63,1.33.21-1.54.13-3,.27-4.51a32.94,32.94,0,0,1,2.25-9.6c.47-1.15.35-1.28-.92-1.26A37.51,37.51,0,0,0,11,26.17a16.37,16.37,0,0,1-4.82.61,20.71,20.71,0,0,1,5-6.34c1.32-.81,2.86-.63,4.29-.92a3.17,3.17,0,0,0,1.91-.86c.55-.62.87-.29,1.08.32a4.09,4.09,0,0,1,.17.69,1.06,1.06,0,0,0,1.29.94c.8-.08,1.58-.23,2.38-.23s.84-.51,1-1a8.33,8.33,0,0,1,1.63-3.17,3.19,3.19,0,0,1,4.19-.82,6.75,6.75,0,0,1,3.15,3.49,2.06,2.06,0,0,0,2.13,1.33,40.28,40.28,0,0,1,4.52.36c1.3.16,1.54,0,1.87-1.21s.39-1.08,1.43-.44a4.66,4.66,0,0,0,4.64.38A6,6,0,0,1,49,17.55c.52.36.1.66-.1.92-3.25,4.21-3.58,9-2.76,14,.3,1.77,1.15,3.35,3.18,3.82A3,3,0,0,0,52.62,35a7.6,7.6,0,0,0,1.21-3.73,21.71,21.71,0,0,0-1.15-9.56c-.58-1.51-1.28-3-3-3.52-.45-.14-.5-.45-.2-.82a5,5,0,0,1,3.94,2.94,16.5,16.5,0,0,1,1.72,4.94,2.86,2.86,0,0,0,.75,1.56,14.16,14.16,0,0,1,2.21,3.8,80.54,80.54,0,0,1,4.06,20.79,7.62,7.62,0,0,0,.12,1.07c.31,1.23,0,2-1.53,2a112.73,112.73,0,0,0-1.3-13.93c-.74-4.62-1.48-9.26-3.9-13.4a18.37,18.37,0,0,1-.35,6.57c-.75,3-2.51,4.58-5,4.66S45.55,36.84,44.61,34a14.68,14.68,0,0,1-.54-5.34A25.63,25.63,0,0,0,43,35c-.45,5.35,0,10.7,0,16,0,2,0,4.08,0,6.12,0,.81-.25,1-1,1-.93,0-.54-.61-.53-1,.06-5.43.16-10.87.25-16.3a6.7,6.7,0,0,1-.22-3.41c0-.52.13-1,.18-1.55a34.66,34.66,0,0,1,.52-3.64,44,44,0,0,1,1.62-5.24c.47-1.34.29-1.61-1.11-1.83-2.55-.38-5.13-.32-7.92-.65a18.88,18.88,0,0,1,3.48,7.6c.41,1.39.61,2.82.89,4.23.21,1.14.36,2.29.52,3.43a2.15,2.15,0,0,1-.21,1.51,155.18,155.18,0,0,1,.42,16.28c0,.94-.57.73-1.07.8-.8.1-.56-.46-.54-.86a129.4,129.4,0,0,0-.37-20,36.24,36.24,0,0,0-2.11-9.52,12,12,0,0,0-2-3.37,32.78,32.78,0,0,1,.08,5.67c-.43,3.18-2.3,5.42-5,5.73a4.73,4.73,0,0,1-5-2.63A13.8,13.8,0,0,1,22.44,28a30.06,30.06,0,0,0-1,7.54c-.09,3.88.07,7.75-.27,11.62-.3,3.42-.64,6.83-.87,10.26-.08,1.1-.75.72-1.31.76-.8,0-.78-.45-.72-1q.69-6.24,1.34-12.49a3.89,3.89,0,0,0-.27-2.81A23.12,23.12,0,0,1,18,47.37c-1.49,3.28-4.64,4.36-7.71,2.58A5.2,5.2,0,0,1,7.7,45.63c-.11-1.3,0-2.61,0-4.26A26.4,26.4,0,0,0,6,46.83c-.61,2.63-1.13,5.29-1.65,7.94-.09.46-.12.72-.7.54s-1-.19-.79-.88C4,50,5,45.44,7,41.25,7.53,40.09,8.54,39.15,8.59,37.75Z"/><path class="cls-3" d="M42,35.83c-.09,1.7-.18,3.39-.26,5.09l-2.25.45-.6-5.07A3,3,0,0,1,42,35.83Z"/><path class="cls-4" d="M46.8,19.28c-.22.71-.6,1-1.41.76a5.86,5.86,0,0,0-1.77-.23,2.09,2.09,0,0,1-2.17-1.32c-.35.14-.31.41-.35.62-.35,1.95-.48,2-2.52,1.72a46.68,46.68,0,0,0-4.89-.33,1.36,1.36,0,0,1-1.5-1A7.57,7.57,0,0,0,29.59,16c-1.93-1.37-3.73-1-5,1a9.19,9.19,0,0,0-1.18,2.84.93.93,0,0,1-1.05.85,17.43,17.43,0,0,0-2.26.21c-1.37.16-1.66-.05-1.91-1.42-.06-.35-.16-.69-.28-1.22C17.25,20,15.79,19.77,14.54,20s-2.28.31-3.42.46a22.66,22.66,0,0,1,12.73-6.08c5.53-.79,11.06-.73,16.41,1.26A23.77,23.77,0,0,1,46.8,19.28Z"/><path class="cls-1" d="M49.48,17.38c0,.12,0,.32,0,.33,2.49.78,3.23,2.91,3.85,5.07a19.38,19.38,0,0,1,.33,10.73,3.86,3.86,0,0,1-2.57,3.06,3.94,3.94,0,0,1-4.83-2.48,12.63,12.63,0,0,1-.87-6.22,24.38,24.38,0,0,1,1.11-6A8.31,8.31,0,0,1,48.91,18c.15-.12.35-.25.05-.42A.56.56,0,0,1,49.48,17.38Z"/><path class="cls-5" d="M39.1,2.29a7,7,0,0,1,5,2.19,1.65,1.65,0,0,1,.55,1.72c-.29.74-1,.78-1.62.74a16.71,16.71,0,0,1-6.44-1.53c-.55-.27-1.11-.63-1-1.31s.58-1,1.13-1.28A7,7,0,0,1,39.1,2.29Z"/><path class="cls-1" d="M18,38.66a19.9,19.9,0,0,1-1.18,7.61c-1,2.33-2.28,3.14-4.4,2.74a4,4,0,0,1-3.28-4.14,24.79,24.79,0,0,1,1.92-10.72,8.78,8.78,0,0,1,2.21-3.09c1.23-1.09,2.37-1,3.31.44A11,11,0,0,1,18,36.86C18,37.46,18,38.06,18,38.66Z"/><path class="cls-6" d="M32.62,27.36A11.56,11.56,0,0,1,32,31.73a4,4,0,0,1-3.89,2.84,3.67,3.67,0,0,1-3.3-2.72,17.26,17.26,0,0,1-.91-7.9,22,22,0,0,1,1-5.52c.41-1.17.83-2.61,2.17-2.8s2.44.95,3.22,2.12c1.4,2.13,1.79,4.57,2.2,7A10.38,10.38,0,0,1,32.62,27.36Z"/><path class="cls-6" d="M38,32.24c-.83-2.79-1.67-5.57-4-7.91,2.24.11,4.21.17,6.17.31,1.11.08,2.21.33,3.32.38.94,0,1,.5.91,1.25a15.49,15.49,0,0,1-.91,2.58c-.39,1.13-.68,2.28-1,3.43A6.26,6.26,0,0,1,38,32.24Z"/><path class="cls-7" d="M38,32.24l4.47,0c-.16,1.18-.33,2.37-.49,3.55l-3.11.47Z"/><path class="cls-7" d="M50.4,27.32a19.31,19.31,0,0,1,.26-3.65c.05-.38.14-.87.57-1s.78.38.94.76A12.85,12.85,0,0,1,52.55,33c-.16.43-.35,1-.94.92s-.66-.6-.77-1.07A25.82,25.82,0,0,1,50.4,27.32Z"/><path class="cls-7" d="M16.82,39.54a11.19,11.19,0,0,1-1.28,5.75c-.22.4-.49,1-1.06.81s-.54-.73-.54-1.2a28.2,28.2,0,0,1,1.25-7.73c.11-.35.23-.86.74-.8s.49.49.61.82A6.87,6.87,0,0,1,16.82,39.54Z"/><path class="cls-7" d="M31.69,27.45a7.29,7.29,0,0,1-.29,2.63c-.17.51-.25,1.23-.92,1.26s-.82-.7-.94-1.2a26.4,26.4,0,0,1-.63-3.4c-.17-1.63-.26-3.26-.29-4.9,0-.59-.09-1.5.61-1.65s1,.7,1.24,1.26A13,13,0,0,1,31.69,27.45Z"/></g></g></svg>